<?xml version="1.0" encoding="UTF-8"?>
<svg id="Layer_1" xmlns="http://www.w3.org/2000/svg" version="1.1" viewBox="0 0 512 512">
  <!-- Generator: Adobe Illustrator 30.2.1, SVG Export Plug-In . SVG Version: 2.1.1 Build 1)  -->
  <defs>
    <style>
      .st0 {
        fill: red;
      }
    </style>
  </defs>
  <polygon class="st0" points="265 496.3 243.4 496.3 243.5 459.3 265 459.3 265 496.3"/>
  <polygon class="st0" points="12.2 266.6 12.2 244.8 49.2 244.6 49.1 266.2 12.2 266.6"/>
  <path class="st0" d="M241.9,429.7l.3,22.6c-99.6-5.6-179.3-85.5-185-185h22.6c5.7,86.5,74.4,156.3,162,162.3Z"/>
  <path class="st0" d="M265.8,452.3l-.6-22.6c86.9-5.7,156.7-74.9,162.4-162.3h22.7c-5.7,98.6-84.2,178.7-184.4,184.9Z"/>
  <path class="st0" d="M427.6,244.5c-5.8-87-75.1-156.5-162.3-162.3v-22.6c98.9,5.7,178.8,84.6,184.9,184.4l-22.6.6Z"/>
  <path class="st0" d="M242.2,82.1c-87.2,5.9-156.4,75.1-162.3,162.1h-22.6c5.8-99.5,85.5-179,184.9-184.7v22.6Z"/>
  <polygon class="st0" points="216.2 267 207 267 206.8 260.8 174.7 260.7 174.1 267 164.9 267 164.4 260.8 132.4 260.8 132.1 266.9 122.6 267 122.4 260.8 105.8 260.7 105.8 251.2 122.4 251.1 122.6 244.8 132.1 244.9 132.3 251.1 164.5 251.1 164.8 244.9 174.2 244.8 174.5 251.1 206.5 251.1 207 244.8 216.3 244.8 216.5 251 237.2 251.2 237.3 260.7 216.6 260.8 216.2 267"/>
  <polygon class="st0" points="258.5 238.5 248.9 238.5 248.8 218.9 242.6 218.4 242.6 209.3 248.9 208.8 248.9 176.8 242.6 176.4 242.7 167 248.9 166.6 248.9 134.7 242.6 134.3 242.6 125 248.9 124.7 248.9 107.6 258.4 107.5 258.6 124.7 264.7 124.9 264.8 134.3 258.5 134.8 258.6 166.7 264.8 167.1 264.8 176.4 258.6 176.7 258.5 208.7 264.8 209.3 264.8 218.5 258.6 218.7 258.5 238.5"/>
  <polygon class="st0" points="258.5 403.2 248.9 403.1 248.8 387.3 242.6 386.8 242.6 377.6 248.9 377.2 248.9 345.1 242.6 344.7 242.6 335.5 248.8 335.2 248.9 303.1 242.6 302.7 242.6 293.3 248.8 293 248.9 272.5 258.5 272.7 258.6 293.1 264.8 293.2 264.8 302.8 258.5 302.9 258.5 335.1 264.7 335.4 264.8 344.8 258.6 345.1 258.5 377.2 264.8 377.6 264.8 386.8 258.6 387.2 258.5 403.2"/>
  <polygon class="st0" points="384.8 266.9 375.5 267 375.2 260.8 343 260.8 342.6 267 333.3 267 332.9 260.8 300.8 260.8 300.6 266.9 291.1 267 291 260.8 273.3 260.7 273.3 251.1 290.9 251.1 291.1 244.8 300.4 244.8 300.9 251.1 332.9 251.1 333.2 244.9 342.7 244.8 342.8 251.1 375.1 251.1 375.4 244.8 384.7 244.8 385 251 402.7 251.2 402.7 260.7 384.9 260.9 384.8 266.9"/>
  <polygon class="st0" points="495.7 266.7 458.7 266.7 458.8 245.1 495.7 245.2 495.7 266.7"/>
  <polygon class="st0" points="264 50.5 242.4 50.5 242.4 13.6 264 13.5 264 50.5"/>
  <path class="st0" d="M251.5,247.9c4.3-1.7,8.5.6,9.9,4.4s-.4,8.2-4.4,9.7-7.7-.2-9.5-3.7-.5-8.6,4-10.3Z"/>
</svg>